<?xml version="1.0" encoding="UTF-8" standalone="no"?>
<!-- Created with Inkscape (http://www.inkscape.org/) -->

<svg
   xmlns:dc="http://purl.org/dc/elements/1.1/"
   xmlns:cc="http://creativecommons.org/ns#"
   xmlns:rdf="http://www.w3.org/1999/02/22-rdf-syntax-ns#"
   xmlns:svg="http://www.w3.org/2000/svg"
   xmlns="http://www.w3.org/2000/svg"
   xmlns:sodipodi="http://sodipodi.sourceforge.net/DTD/sodipodi-0.dtd"
   xmlns:inkscape="http://www.inkscape.org/namespaces/inkscape"
   width="45.37056mm"
   height="45.685844mm"
   viewBox="0 0 160.76183 161.87898"
   id="svg3406"
   version="1.1"
   inkscape:version="0.91 r13725"
   sodipodi:docname="togo.svg">
  <defs
     id="defs3408" />
  <sodipodi:namedview
     id="base"
     pagecolor="#ffffff"
     bordercolor="#666666"
     borderopacity="1.0"
     inkscape:pageopacity="0.0"
     inkscape:pageshadow="2"
     inkscape:zoom="0.35"
     inkscape:cx="-236.04765"
     inkscape:cy="98.082347"
     inkscape:document-units="px"
     inkscape:current-layer="layer1"
     showgrid="false"
     borderlayer="true"
     inkscape:showpageshadow="false"
     fit-margin-left="3"
     fit-margin-top="3"
     fit-margin-right="3"
     fit-margin-bottom="3"
     inkscape:window-width="1600"
     inkscape:window-height="836"
     inkscape:window-x="0"
     inkscape:window-y="27"
     inkscape:window-maximized="1" />
  <metadata
     id="metadata3411">
    <rdf:RDF>
      <cc:Work
         rdf:about="">
        <dc:format>image/svg+xml</dc:format>
        <dc:type
           rdf:resource="http://purl.org/dc/dcmitype/StillImage" />
        <dc:title></dc:title>
      </cc:Work>
    </rdf:RDF>
  </metadata>
  <g
     inkscape:label="Layer 1"
     inkscape:groupmode="layer"
     id="layer1"
     transform="translate(-96.761939,-468.56557)">
    <path
       style="fill:#a48a7b;fill-opacity:1"
       d="m 151.8577,501.55388 c -3.05164,0 -5.53125,2.48175 -5.53125,5.5293 l 0,4.93164 -0.84571,0 c -3.37846,0 -6.12695,2.75046 -6.12695,6.12891 l 0,7.82031 c 0,3.37847 2.74849,6.12891 6.12695,6.12891 l 0.19336,0 1.32227,13.34765 -1.5918,0 3.05274,30.79493 1.59179,0 1.55469,15.68945 c 0,3.04756 2.48157,5.53125 5.5332,5.53125 l 40.10352,0 c 0.76189,0 1.48859,-0.15579 2.15039,-0.4336 1.98336,-0.83132 3.37722,-2.76197 3.37109,-4.89648 l 1.57227,-15.89062 1.49805,0 3.04882,-30.79493 -1.5,0 1.32227,-13.34961 0.0996,0 c 3.37846,0 6.12891,-2.74849 6.12891,-6.12695 l 0,-7.82031 c -0.002,-3.37845 -2.7524,-6.12891 -6.13086,-6.12891 l -0.84766,0 0,-1.44336 c 0,-3.04755 -2.47622,-5.52734 -5.38281,-5.52734 l -0.008,0 -50.70507,-3.49024 z m 2.24023,31.22071 a 2.0002,2.0002 0 0 1 2.02539,1.82422 l 5.5293,54.24414 a 2.0004744,2.0004744 0 0 1 -3.98047,0.40429 l -5.52734,-54.24218 a 2.0002,2.0002 0 0 1 1.95312,-2.23047 z"
       id="path5272"
       inkscape:connector-curvature="0" />
  </g>
</svg>
